# xmcd
#
# Track frame offsets:
#	150
#	17614
#	35185
#	49462
#	67853
#	95900
#	117061
#	138240
#	156075
#	175200
#	192235
#	206119
#
# Disc length: 2973 seconds
#
# Revision: 1
# Processed by: cddbd v1.5.1PL0 Copyright (c) Steve Scherf et al.
# Submitted via: audiograbber 1.83.01
#
DISCID=ab0b9b0c
DTITLE=George Friend - Looka Here!
DYEAR=2004
DGENRE=Blues
TTITLE0=The Grinder
TTITLE1=Sit Down Baby
TTITLE2=Lazy Ass
TTITLE3=Looka Here
TTITLE4=Whole Lotta Trouble
TTITLE5=All Jacked Up
TTITLE6=Trick This Fool
TTITLE7=Drunkard's Alibi
TTITLE8=Juicy
TTITLE9=1540 Special
TTITLE10=El Lechero
TTITLE11=Wanna Tell
EXTD=
EXTT0=
EXTT1=
EXTT2=
EXTT3=
EXTT4=
EXTT5=
EXTT6=
EXTT7=
EXTT8=
EXTT9=
EXTT10=
EXTT11=
PLAYORDER=
